<svg xmlns="http://www.w3.org/2000/svg" viewBox="0 0 80 80"><style type="text/css">  
	.st0{fill:#FFFFFF;}
</style><path class="st0" d="M79.7 42.5c-1.1-3.4-4.8-5.2-8.2-4.1l-8.1 2.7 -5.4-16 8.1-2.7c3.4-1.1 5.2-4.8 4.1-8.2S65.4 9 62 10.1l-8.1 2.7 -2.8-8.4C50 1 46.3-0.8 42.9 0.3c-3.4 1.1-5.2 4.8-4.1 8.2l2.8 8.4 -16.7 5.6L22 14.1c-1.1-3.4-4.8-5.2-8.2-4.1s-5.2 4.8-4.1 8.2l2.8 8.4 -8.1 2.7c-3.4 1.1-5.2 4.8-4.1 8.2 0.9 2.6 3.4 4.3 6 4.4C7 42 7.8 41.8 8.5 41.6l8.1-2.7 5.4 16 -8.1 2.7c-3.4 1.1-5.2 4.8-4.1 8.2 0.9 2.6 3.4 4.3 6 4.4 0.7 0.1 1.5-0.1 2.2-0.3l8.1-2.7 2.8 8.4c0.9 2.6 3.4 4.3 6 4.4 0.7 0.1 1.5-0.1 2.2-0.3 3.4-1.1 5.2-4.8 4.1-8.2l-2.8-8.4 16.7-5.6 2.8 8.4c0.9 2.6 3.4 4.3 6 4.4 0.7 0.1 1.5-0.1 2.2-0.3 3.4-1.1 5.2-4.8 4.1-8.2l-2.8-8.4 8.1-2.7C79 49.6 80.8 45.9 79.7 42.5zM34.3 51l-5.4-16.1 16.7-5.6L51 45.4 34.3 51z"/></svg>
